<svg width="149" height="48" viewBox="0 0 149 48" fill="none" xmlns="http://www.w3.org/2000/svg">
<path fill-rule="evenodd" clip-rule="evenodd" d="M4.47123 30.3119V36.5811L5.49914 35.8422C6.43766 35.1929 6.66112 35.1257 8.22532 35.1257C9.52138 35.1257 10.1694 35.2601 10.8398 35.5959C11.3314 35.8646 12.0688 36.4691 12.471 36.9393C12.8732 37.4095 13.3648 38.3275 13.566 38.932C13.7671 39.5813 13.9235 40.7232 13.9011 41.6188C13.9011 42.4697 13.7224 43.6339 13.5213 44.1937C13.3202 44.7534 12.9403 45.4923 12.6498 45.8729C12.3816 46.2536 11.5548 46.8805 10.8174 47.2835C9.83422 47.8209 9.23088 48 8.38174 48C7.77841 48 6.90692 47.8433 6.48235 47.6418C6.05778 47.4179 5.4321 47.082 4.47123 46.4327V47.7761L0.337264 47.6641L0.314919 39.2679C0.292573 34.6555 0.314919 30.7373 0.35961 30.6029C0.404302 30.4014 1.02998 30.3119 4.47123 30.3119ZM5.02988 39.447C4.85111 39.7157 4.62765 40.365 4.56062 40.9024C4.47123 41.4173 4.51592 42.201 4.65 42.6264C4.78407 43.0518 5.1416 43.6339 5.40975 43.925C5.70025 44.1937 6.30359 44.4848 6.81754 44.5519C7.48791 44.6415 7.89013 44.5519 8.44878 44.2161C8.82866 43.9474 9.32026 43.3876 9.49903 42.9622C9.6778 42.5368 9.83422 41.798 9.83422 41.3502C9.81187 40.88 9.58841 40.1187 9.32026 39.6709C9.05211 39.2007 8.6052 38.7305 8.33705 38.5962C8.04656 38.4842 7.48791 38.3723 7.10803 38.3723C6.70581 38.3947 6.14716 38.5066 5.87901 38.6634C5.58852 38.8201 5.20864 39.1783 5.02988 39.447ZM21.454 35.0362C22.1244 35.0138 23.197 35.1481 23.8003 35.3272C24.426 35.5288 25.3198 35.9989 25.8114 36.4244C26.3477 36.8722 26.9287 37.6782 27.2416 38.3947C27.5321 39.0664 27.8449 40.2754 28.046 42.6264H19.2194L19.5546 43.2981C19.7334 43.6787 20.225 44.1265 20.6272 44.328C21.1039 44.5818 21.7147 44.6713 22.4596 44.5967C23.1076 44.5519 23.8674 44.3056 25.0293 43.522L26.0349 44.4848C26.5935 44.9997 27.0628 45.5147 27.0628 45.649C27.0628 45.7834 26.6829 46.1416 26.2137 46.4775C25.7444 46.8133 24.8953 47.2835 24.3143 47.5298C23.5545 47.8657 22.7501 48 21.6328 48C20.739 48 19.9122 47.9104 19.7781 47.7985C19.6664 47.6865 19.1971 47.485 18.7725 47.3507C18.348 47.2163 17.6105 46.7909 17.1189 46.3879C16.6497 45.9849 16.0016 45.0893 15.6888 44.4176C15.1972 43.41 15.0855 42.8727 15.1078 41.5069C15.1078 40.2307 15.2419 39.5366 15.6665 38.6186C15.9793 37.8797 16.605 37.0513 17.2083 36.5363C17.767 36.0437 18.6608 35.5288 19.2194 35.3496C19.7781 35.1929 20.7836 35.0362 21.454 35.0362ZM19.1971 39.9396C19.2194 40.365 19.3982 40.3874 21.6328 40.3874H24.0238C23.7556 39.2679 23.4428 38.7081 23.1299 38.4395C22.7277 38.0588 22.3032 37.9245 21.5881 37.9245C20.739 37.9245 20.4931 38.0364 19.8898 38.7081C19.4876 39.1559 19.1747 39.7157 19.1971 39.9396ZM34.4146 35.0362C35.0849 35.0362 36.0905 35.1257 36.6491 35.2377C37.2078 35.372 38.124 35.6855 39.7552 36.4691L39.0848 37.7678C38.7273 38.4618 38.3698 39.044 38.2804 39.044C38.1687 39.044 37.543 38.7977 36.8726 38.4842C35.9788 38.0588 35.3531 37.9245 34.5263 37.9693C33.4984 38.0364 33.409 38.0812 33.409 38.5962C33.409 39.1112 33.6325 39.2231 35.7553 39.9844C37.2078 40.5217 38.3474 41.0591 38.7273 41.4397C39.0625 41.798 39.4647 42.4249 39.5988 42.8503C39.7329 43.2757 39.7775 43.9922 39.6882 44.4176C39.6211 44.843 39.353 45.5371 39.1072 45.9401C38.8167 46.4103 38.191 46.8805 37.2748 47.3283C36.1352 47.8657 35.5765 48 34.4146 48C33.6101 48 32.4034 47.7985 31.7331 47.5746C31.0627 47.3507 30.1689 46.9924 29.789 46.7909C29.3868 46.5894 29.0069 46.3431 28.9398 46.2088C28.8728 46.0745 29.0963 45.4475 30.0571 43.5668L31.3979 44.2161C32.1353 44.5743 33.1855 44.9326 33.7442 44.9997C34.3252 45.0669 34.9732 45.0221 35.2637 44.8878C35.5318 44.7534 35.7553 44.44 35.7553 44.1937C35.7553 43.8578 35.4648 43.6339 34.5933 43.3205C33.9453 43.0966 32.8727 42.7159 32.2023 42.492C31.4426 42.2234 30.7275 41.7532 30.2582 41.2382C29.8337 40.7456 29.4761 40.1187 29.4538 39.7829C29.4538 39.4246 29.4538 38.8649 29.4761 38.4842C29.5208 38.126 29.6773 37.5439 29.856 37.208C30.0348 36.8498 30.5041 36.3348 30.9063 36.0437C31.2862 35.7527 31.9789 35.3944 32.4034 35.2825C32.828 35.1481 33.7442 35.0586 34.4146 35.0362ZM47.4868 35.0362C48.2243 35.0138 49.3415 35.1481 49.9449 35.3496C50.5706 35.5288 51.3303 35.9318 51.6878 36.2452C52.023 36.5587 52.4699 37.1408 52.6711 37.5439C53.0062 38.1484 53.0733 38.932 53.0733 47.6641H51.0622C49.1404 47.6641 49.051 47.6418 48.9393 46.6566L47.7773 47.3283C46.8612 47.8433 46.3025 48 45.364 48C44.4702 48 43.8668 47.8657 43.1294 47.4626C42.5708 47.1716 41.9674 46.679 41.7663 46.3879C41.5652 46.1192 41.2747 45.4475 41.1406 44.9326C40.9619 44.1937 40.9619 43.7235 41.1853 42.9175C41.3641 42.2681 41.7216 41.6636 42.1909 41.2382C42.5708 40.9024 43.2858 40.5217 43.7551 40.3874C44.202 40.2754 45.5651 40.1635 46.7718 40.1635C48.9393 40.1635 48.9393 40.1635 48.9393 39.6037C48.9393 39.2231 48.7159 38.9096 48.2242 38.5962C47.822 38.3499 47.1963 38.1484 46.8165 38.1484C46.4589 38.1484 45.5874 38.2827 44.9171 38.4618C44.2467 38.641 43.5093 38.8425 43.3082 38.9096C42.9953 39.0216 42.7719 38.7753 42.3473 37.8125C42.0345 37.1408 41.7887 36.5363 41.7887 36.4691C41.7887 36.402 42.1685 36.2005 42.6378 35.9989C43.0847 35.7974 44.0679 35.5064 44.8053 35.3496C45.5428 35.1929 46.7494 35.0362 47.4868 35.0362ZM45.0288 43.6339C45.0288 44.3952 45.1182 44.5743 45.6992 44.843C46.0791 44.9997 46.66 45.0893 47.0399 45.0221C47.4198 44.9326 47.9784 44.6863 48.336 44.4176C48.8276 44.0594 48.9393 43.7907 48.9393 43.0742V42.1786C46.7718 42.1786 45.9003 42.3129 45.5874 42.4697C45.1405 42.6936 45.0288 42.9175 45.0288 43.6339ZM76.3129 35.0362C77.0503 35.0138 78.1899 35.1705 78.838 35.3496C79.553 35.5511 80.2904 35.9766 80.7373 36.4244C81.1172 36.8274 81.5865 37.5439 81.7206 38.0364C81.8993 38.6186 82.011 40.4993 82.011 47.7761H79.9999C78.2346 47.7761 77.9888 47.7313 77.9888 47.3955C77.9888 47.1716 77.9441 46.9253 77.8771 46.8357C77.81 46.7238 77.2737 46.9477 76.6481 47.3283C75.7095 47.888 75.3073 48 74.1453 48C72.9834 47.9776 72.5811 47.888 71.8437 47.3731C71.3521 47.0148 70.7264 46.3879 70.4359 45.9625C70.0561 45.4028 69.922 44.8654 69.922 43.9698C69.922 43.0742 70.0561 42.5368 70.4359 41.9771C70.7264 41.5517 71.3074 40.9919 71.732 40.7456C72.38 40.3426 72.961 40.2754 75.2626 40.2307C77.2514 40.1859 77.9888 40.0963 77.9888 39.8948C78.0112 39.7381 77.81 39.3351 77.5419 38.9992C77.2514 38.5962 76.8045 38.3275 76.2682 38.2379C75.7319 38.1484 74.7934 38.2379 73.7431 38.5066C72.8269 38.7305 71.9778 38.932 71.8884 38.932C71.7767 38.932 71.4415 38.3499 70.6147 36.3572L71.799 35.9094C72.4247 35.6631 73.4079 35.372 73.9666 35.2601C74.5252 35.1481 75.5755 35.0586 76.3129 35.0362ZM73.8772 43.119C73.7878 43.41 73.7655 43.8355 73.8325 44.0817C73.8995 44.328 74.2124 44.6639 74.5252 44.8206C74.8381 44.955 75.3073 45.0893 75.5978 45.0893C75.866 45.0893 76.447 44.8654 76.8715 44.5743C77.2961 44.3056 77.743 43.8131 77.8547 43.522C77.9665 43.2085 77.9888 42.7831 77.9218 42.5816C77.7877 42.2458 77.4972 42.1786 76.3799 42.201C75.5978 42.201 74.771 42.2905 74.5029 42.4025C74.2571 42.5144 73.9666 42.8279 73.8772 43.119Z" fill="#1B1A0E"/>
<path fill-rule="evenodd" clip-rule="evenodd" d="M131.328 0.577823C131.931 0.801723 132.959 1.40625 133.63 1.94361C134.3 2.45859 135.283 3.5557 135.819 4.33935C136.356 5.14539 136.937 6.30967 137.138 6.9142C137.361 7.60829 137.54 9.35472 137.764 15.0418L141.227 15.1313C144.445 15.1985 144.78 15.2433 145.808 15.7807C146.411 16.1165 147.216 16.6986 147.573 17.1241C147.931 17.5495 148.355 18.1764 148.557 18.557C148.735 18.9376 148.936 19.7885 148.981 20.4602C149.071 21.5573 148.892 22.2066 147.372 26.5055C146.434 29.1475 145.182 32.6851 144.579 34.342C143.998 35.9988 142.948 38.9319 142.255 40.8351C141.562 42.7382 140.736 44.6414 140.445 45.0444C140.132 45.425 139.551 46.0072 139.149 46.3206C138.769 46.6341 137.808 47.0819 137.026 47.3282C135.685 47.7536 135.06 47.776 119.708 47.776C104.535 47.776 103.731 47.776 102.346 47.3506C101.34 47.0371 100.558 46.6117 99.7981 45.94C99.1948 45.4027 98.5691 44.6862 98.368 44.3055C98.1892 43.9249 97.6529 42.5367 97.1613 41.1709C96.6697 39.8051 96.0887 38.2155 95.8653 37.5885C95.6194 36.984 94.2787 33.2001 92.8486 29.1923C90.8598 23.5276 90.2788 21.6692 90.2788 20.796C90.2788 20.1691 90.4799 19.2287 90.7481 18.669C90.9939 18.1092 91.4631 17.3703 91.7983 17.0345C92.1335 16.6763 92.9156 16.1165 93.5189 15.803C94.5915 15.2209 94.7703 15.1985 103.016 15.0866V12.243C103.016 10.2503 103.128 8.99647 103.373 8.14565C103.575 7.47395 103.977 6.44401 104.267 5.86187C104.558 5.25734 105.228 4.36174 105.764 3.82438C106.278 3.30941 107.217 2.61532 107.82 2.32424C109.648 1.38727 112.683 1.40118 114.524 2.30185C115.15 2.61531 116.178 3.37658 116.826 3.98111C117.496 4.60803 118.211 5.45885 118.457 5.86187C118.68 6.2425 118.948 6.57835 119.06 6.57835C119.15 6.57835 119.485 5.95143 119.82 5.19017C120.155 4.40652 120.87 3.28702 121.384 2.68249C121.92 2.07795 122.859 1.2943 123.462 0.958453C125.637 -0.286623 129.046 -0.213754 131.328 0.577823ZM122.904 5.90665C122.457 6.4664 121.876 7.51873 121.585 8.2576C121.138 9.35471 121.027 10.116 120.96 12.355L120.893 15.0866H134.412C134.188 10.8325 133.942 9.08603 133.764 8.4815C133.563 7.87697 133.071 6.89181 132.691 6.30967C132.289 5.72753 131.462 4.92149 130.859 4.51847C129.876 3.84677 129.585 3.7796 127.954 3.71243C126.323 3.64526 126.01 3.71243 124.915 4.27218C124.222 4.63042 123.373 5.32451 122.904 5.90665ZM108.044 6.6903C107.44 7.27244 107.016 8.01131 106.748 8.81735C106.479 9.69056 106.368 10.7653 106.368 12.5789V15.0866H117.541C117.541 12.4893 117.429 11.1907 117.295 10.5414C117.161 9.91446 116.848 8.99647 116.624 8.54867C116.379 8.07848 115.865 7.362 115.462 6.98137C115.06 6.57835 114.345 6.04099 113.854 5.81709C113.362 5.5708 112.401 5.3469 111.731 5.32451C111.06 5.27973 110.144 5.36929 109.72 5.52602C109.295 5.66036 108.535 6.19772 108.044 6.6903Z" fill="#1B1A0E"/>
<path fill-rule="evenodd" clip-rule="evenodd" d="M118.435 19.5641V21.6912C118.435 23.6615 118.435 24.9378 119.552 24.9378C120.669 24.9378 120.283 25.0184 127.999 24.9378C135.715 24.8571 136.299 25.048 136.982 24.5123C137.496 24.1093 137.54 23.9302 137.652 19.5641H140.624C142.881 19.5641 143.686 19.6313 144.065 19.9C144.356 20.0791 144.579 20.4597 144.579 20.7508C144.579 21.0195 143.775 23.46 142.792 26.1692C141.831 28.8784 140.311 33.1101 139.44 35.573C138.568 38.0359 137.652 40.566 137.451 41.1705C137.161 41.9318 136.803 42.4468 135.529 43.32H103.798L103.039 42.805C102.324 42.3348 102.122 41.9094 100.536 37.4762C99.5974 34.8341 98.0332 30.4905 97.0946 27.8485C96.1561 25.2064 95.2399 22.654 95.0612 22.2062C94.8824 21.736 94.726 21.1091 94.726 20.818C94.7036 20.4597 94.8824 20.1463 95.2176 19.9C95.6869 19.6089 97.184 19.5641 118.435 19.5641ZM127.597 19.5641C133.407 19.5641 134.3 19.6089 134.3 19.9C134.3 20.0791 134.189 20.4374 134.077 20.6836C133.853 21.1091 133.63 21.1315 127.485 21.1315C122.033 21.1315 121.094 21.0867 121.005 20.7956C120.938 20.6165 120.893 20.2582 120.893 20.0119C120.893 19.5641 121.049 19.5641 127.597 19.5641Z" fill="#FFF200"/>
<path fill-rule="evenodd" clip-rule="evenodd" d="M24.0238 6.57857C24.3367 6.57857 24.7836 6.78008 25.0294 7.02637C25.2752 7.27266 25.4763 7.76524 25.4763 8.14587C25.4763 8.5265 25.2752 9.01908 25.0294 9.26537C24.7836 9.51166 24.292 9.71317 23.9121 9.71317C23.4428 9.71317 23.1077 9.53405 22.7948 9.08625C22.5267 8.7504 22.3479 8.3026 22.3479 8.0787C22.3702 7.8548 22.616 7.42939 22.9065 7.13832C23.197 6.82486 23.711 6.57857 24.0238 6.57857ZM27.5321 6.57857C27.9567 6.57857 28.2919 6.78008 28.6047 7.20549C28.8729 7.54134 29.074 8.03392 29.0516 8.32499C29.0516 8.59367 28.8505 9.01908 28.6047 9.26537C28.3589 9.51166 27.8673 9.71317 27.4874 9.71317C27.1075 9.71317 26.6159 9.51166 26.3701 9.26537C26.1243 9.01908 25.9009 8.54889 25.8785 8.21304C25.8562 7.83241 26.0349 7.42939 26.3701 7.09354C26.6606 6.80247 27.1746 6.57857 27.5321 6.57857ZM35.9788 7.47417H39.7776V20.0126H41.6323C43.1071 20.035 43.5317 19.9454 43.8445 19.632C44.135 19.3185 44.2468 18.714 44.3585 14.527H47.9338L48.0008 17.1019C48.0455 18.8035 48.1573 19.7215 48.336 19.8335C48.4924 19.923 49.1181 20.0126 49.7215 20.0126C50.4812 20.0126 50.9728 19.8782 51.241 19.6096C51.5762 19.2737 51.6432 18.8259 51.6209 13.5195H55.4196V16.6541C55.4196 19.2513 55.4867 19.8111 55.7548 19.9006C55.9336 19.9678 56.5146 20.0126 57.0509 20.0126C57.5648 20.0126 58.1905 19.8782 58.4363 19.6991C58.8385 19.4081 58.8832 19.0946 58.995 12.4H62.7937L62.7491 16.0943C62.7044 18.8707 62.7491 19.8111 62.9725 19.9006C63.1066 19.9678 64.2909 20.0126 65.587 20.0126C67.7768 20.0126 67.9556 19.9678 68.2685 19.52C68.5366 19.117 68.6036 18.2662 68.6036 12.4H72.4024L72.3577 15.9376C72.3354 17.8631 72.4024 19.5872 72.4695 19.7439C72.5812 19.923 73.3186 20.0126 77.3185 20.0126V12.4H81.1173V23.3711H77.0504C73.2516 23.3711 72.894 23.3487 70.9053 22.3635L70.0338 22.8113C69.274 23.192 68.7154 23.2591 66.0339 23.2591C63.4418 23.2591 62.7491 23.192 62.0116 22.8337C61.1402 22.4307 61.0955 22.4307 60.224 22.8337C59.576 23.1472 58.8609 23.2591 57.4308 23.2591C56.09 23.2367 55.3303 23.1248 54.8163 22.8561C54.1012 22.4979 54.0119 22.4979 52.6935 22.9457C51.6432 23.3039 50.9058 23.3935 49.8332 23.3263C49.0287 23.2815 47.9785 23.0352 47.4869 22.7889C46.5931 22.3635 46.5931 22.3635 45.6992 22.8113C44.8724 23.2367 44.3585 23.2591 31.3979 23.2591L30.3477 22.6546C29.2974 22.0277 29.2527 22.0277 28.1131 22.3635C27.4651 22.5427 26.3701 22.6994 25.6998 22.6994C25.0294 22.6994 24.0462 22.565 23.5322 22.3635C22.9959 22.1844 22.2138 21.759 21.7669 21.4232C21.32 21.0649 20.6943 20.3484 20.3815 19.7887C20.0016 19.117 19.7781 18.3109 19.7111 17.4377C19.6217 16.363 19.7111 15.848 20.1357 14.8853C20.4262 14.2136 21.0295 13.3627 21.4541 13.0045C21.8786 12.6239 22.6831 12.1313 23.2417 11.885C23.8674 11.6163 25.0294 11.3924 26.3254 11.3029C27.4427 11.2357 28.3813 11.1014 28.3813 11.0118C28.3813 10.8998 29.2304 10.8327 32.18 10.8327V15.0868C32.18 18.5796 32.2471 19.4081 32.5152 19.6767C32.7387 19.9006 33.3197 20.0126 35.9788 20.0126V7.47417ZM23.6886 15.9824C23.5769 16.2287 23.4652 16.766 23.4652 17.1691C23.4428 17.5497 23.6439 18.1542 23.9121 18.5125C24.1579 18.8483 24.6942 19.2065 25.0964 19.3185C25.4763 19.4304 26.169 19.4528 26.5936 19.3633C27.0182 19.2737 27.5992 19.0722 27.8896 18.9379C28.3589 18.6916 28.3813 18.5348 28.3366 16.7212L28.2695 14.7509C25.6774 14.639 25.2082 14.7285 24.6495 15.0868C24.2473 15.3331 23.8004 15.7361 23.6886 15.9824ZM68.7154 24.9384C68.9612 24.9384 69.3857 25.0951 69.6762 25.2742C70.0338 25.5205 70.1679 25.834 70.1679 26.4609C70.1679 26.9311 69.9891 27.4685 69.7656 27.6924C69.5645 27.9163 69.0729 28.073 68.7154 28.073C68.3578 28.073 67.8662 27.8939 67.6428 27.67C67.4193 27.4461 67.2406 26.9311 67.2182 26.4609C67.2182 25.834 67.3299 25.5653 67.7322 25.2742C68.0227 25.0951 68.4696 24.9384 68.7154 24.9384ZM72.4471 24.9384C72.8717 24.9384 73.2069 25.1399 73.5197 25.5653C73.7879 25.9012 73.989 26.3937 73.9666 26.6848C73.9666 26.9535 73.7655 27.3789 73.5197 27.6252C73.2739 27.8715 72.7823 28.073 72.4024 28.073C72.0225 28.073 71.5309 27.8715 71.2851 27.6252C71.0393 27.3789 70.8159 26.9087 70.7935 26.5729C70.7712 26.1922 70.95 25.7892 71.2851 25.4534C71.5756 25.1623 72.0896 24.9384 72.4471 24.9384ZM79.1732 24.9608C79.5307 24.9384 80 25.1623 80.3352 25.4981C80.6927 25.8564 80.8938 26.3042 80.8938 26.7296C80.8938 27.1102 80.6704 27.67 80.3575 28.0282C79.9553 28.476 79.5978 28.6327 79.0391 28.6327C78.5699 28.6327 78.0783 28.4536 77.7878 28.1849C77.5196 27.9387 77.2515 27.4909 77.1844 27.1774C77.1174 26.8639 77.1844 26.3713 77.2962 26.0579C77.4302 25.7444 77.7654 25.3862 78.0336 25.2295C78.3241 25.0951 78.8157 24.9608 79.1732 24.9608ZM56.09 30.312H60.1123V47.7762H56.09V30.312ZM67.7098 30.312V47.7762L63.5758 47.6643L63.5535 39.268C63.5312 34.6557 63.5535 30.7374 63.5982 30.6031C63.6429 30.4016 64.2686 30.312 67.7098 30.312Z" fill="#1B1A0E"/>
</svg>
